<?xml version="1.0" encoding="UTF-8" standalone="no"?>
<svg
   xmlns:dc="http://purl.org/dc/elements/1.1/"
   xmlns:cc="http://creativecommons.org/ns#"
   xmlns:rdf="http://www.w3.org/1999/02/22-rdf-syntax-ns#"
   xmlns:svg="http://www.w3.org/2000/svg"
   xmlns="http://www.w3.org/2000/svg"
   xmlns:sodipodi="http://sodipodi.sourceforge.net/DTD/sodipodi-0.dtd"
   xmlns:inkscape="http://www.inkscape.org/namespaces/inkscape"
   inkscape:version="1.0.1 (3bc2e813f5, 2020-09-07)"
   sodipodi:docname="folder_html.svg"
   id="svg14"
   version="1.1"
   viewBox="0 0 32 32">
  <metadata
     id="metadata18">
    <rdf:RDF>
      <cc:Work
         rdf:about="">
        <dc:format>image/svg+xml</dc:format>
        <dc:type
           rdf:resource="http://purl.org/dc/dcmitype/StillImage" />
        <dc:title />
      </cc:Work>
    </rdf:RDF>
  </metadata>
  <sodipodi:namedview
     inkscape:document-rotation="0"
     inkscape:current-layer="svg14"
     inkscape:window-maximized="1"
     inkscape:window-y="0"
     inkscape:window-x="0"
     inkscape:cy="27.963416"
     inkscape:cx="-18.124925"
     inkscape:zoom="7.375"
     showgrid="false"
     id="namedview16"
     inkscape:window-height="1007"
     inkscape:window-width="1920"
     inkscape:pageshadow="2"
     inkscape:pageopacity="0"
     guidetolerance="10"
     gridtolerance="10"
     objecttolerance="10"
     borderopacity="1"
     bordercolor="#666666"
     pagecolor="#ffffff"
     showguides="false" />
  <defs
     id="defs3051">
    <style
       id="current-color-scheme"
       type="text/css">
      .ColorScheme-Text {
        color:#31363b;
      }
      .ColorScheme-Background {
        color:#eff0f1;
      }
      .ColorScheme-Highlight {
        color:#3daee9;
      }
      .ColorScheme-ViewText {
        color:#31363b;
      }
      .ColorScheme-ViewBackground {
        color:#fcfcfc;
      }
      .ColorScheme-ViewHover {
        color:#93cee9;
      }
      .ColorScheme-ViewFocus{
        color:#3daee9;
      }
      .ColorScheme-ButtonText {
        color:#31363b;
      }
      .ColorScheme-ButtonBackground {
        color:#eff0f1;
      }
      .ColorScheme-ButtonHover {
        color:#93cee9;
      }
      .ColorScheme-ButtonFocus{
        color:#3daee9;
      }
      </style>
  </defs>
  <g
     id="g8"
     transform="matrix(0.05714286,0,0,0.05714286,2.0659532,2.2289435)">
    <path
       d="M 439.5,84 H 234.729 L 198.09,45.279 C 182.464,28.269 164.607,20 143.5,20 h -88 C 24.897,20 0,44.897 0,75.5 v 344 C 0,450.103 24.897,475 55.5,475 h 384 c 30.603,0 55.5,-24.897 55.5,-55.5 v -280 C 495,108.897 470.103,84 439.5,84 Z M 480,419.5 c 0,22.332 -18.168,40.5 -40.5,40.5 H 55.5 C 33.168,460 15,441.832 15,419.5 v -232 C 15,165.168 33.168,147 55.5,147 h 384 c 22.332,0 40.5,18.168 40.5,40.5 z M 439.5,132 H 55.5 C 39.536,132 25.135,138.784 15,149.61 V 75.5 C 15,53.168 33.168,35 55.5,35 h 88 c 16.92,0 30.768,6.503 43.579,20.465 0.026,0.028 0.052,0.057 0.079,0.084 l 38.895,41.105 C 227.469,98.151 229.439,99 231.5,99 h 208 c 22.332,0 40.5,18.168 40.5,40.5 v 10.11 C 469.865,138.784 455.464,132 439.5,132 Z"
       id="path2"
       style="fill:#8585ad;fill-opacity:1" />
    <path
       d="m 431.5,180 h -104 c -4.142,0 -7.5,3.357 -7.5,7.5 0,4.143 3.358,7.5 7.5,7.5 h 104 c 4.142,0 7.5,-3.357 7.5,-7.5 0,-4.143 -3.358,-7.5 -7.5,-7.5 z"
       id="path4-3"
       style="fill:#d3dae3;fill-opacity:1" />
    <path
       d="m 431.5,220 h -104 c -4.142,0 -7.5,3.357 -7.5,7.5 0,4.143 3.358,7.5 7.5,7.5 h 104 c 4.142,0 7.5,-3.357 7.5,-7.5 0,-4.143 -3.358,-7.5 -7.5,-7.5 z"
       id="path6-6"
       style="fill:#d3dae3;fill-opacity:1" />
  </g>
  <path
     id="path12"
     class="ColorScheme-Background"
     d="m 8.599949,18.600592 a 3.9995936,3.999578 0 0 0 -0.768669,0.07496 3.9995936,3.999578 0 0 0 -0.02659,0.0041 c -0.132903,0.02474 -0.2628,0.05526 -0.392147,0.09531 -0.126823,0.03931 -0.249113,0.08926 -0.370274,0.14061 -0.09902,0.04198 -0.194223,0.08949 -0.289034,0.139048 a 3.9995936,3.999578 0 0 0 -0.1078,0.05785 c -0.08488,0.0477 -0.167483,0.09792 -0.248412,0.151549 a 3.9995936,3.999578 0 0 0 -0.118742,0.08278 c -0.07786,0.05567 -0.154534,0.1124 -0.228099,0.173421 a 3.9995936,3.999578 0 0 0 -0.09375,0.08279 c -0.07695,0.06794 -0.153467,0.135771 -0.224979,0.20935 -0.170593,0.175529 -0.321397,0.369189 -0.457764,0.573379 a 3.9995936,3.999578 0 0 0 -0.04526,0.06408 c -0.06091,0.09514 -0.115939,0.193375 -0.168732,0.293719 a 3.9995936,3.999578 0 0 0 -0.03437,0.06563 c -0.04999,0.09949 -0.09581,0.200702 -0.137487,0.304654 a 3.9995936,3.999578 0 0 0 -0.03437,0.0922 c -0.02567,0.06893 -0.05628,0.135617 -0.07808,0.206228 -0.011,0.0356 -0.01681,0.07203 -0.0266,0.107801 a 3.9995936,3.999578 0 0 0 -0.01089,0.04215 c -0.0251,0.0969 -0.04842,0.19443 -0.06563,0.293718 a 3.9995936,3.999578 0 0 0 -0.04526,0.321842 c -3.28e-4,0.0038 -0.0015,0.0058 -0.002,0.0094 -1.03e-4,0.0013 1.04e-4,0.0024 0,0.0037 A 3.9995936,3.999578 0 0 0 4.6,22.600167 a 3.9995936,3.999578 0 0 0 0.07497,0.768668 3.9995936,3.999578 0 0 0 0.0041,0.02659 c 0.02474,0.132903 0.05526,0.262806 0.09531,0.392148 0.03931,0.126823 0.08926,0.249114 0.140611,0.370274 0.04196,0.09902 0.08948,0.194223 0.139047,0.289034 a 3.9995936,3.999578 0 0 0 0.05784,0.1078 c 0.0477,0.08489 0.09792,0.167484 0.151546,0.248413 a 3.9995936,3.999578 0 0 0 0.08279,0.11874 c 0.05567,0.07786 0.112397,0.154535 0.173419,0.2281 a 3.9995936,3.999578 0 0 0 0.08277,0.09375 c 0.06794,0.07696 0.135779,0.153468 0.209357,0.22498 0.17553,0.170593 0.369188,0.321397 0.573379,0.457764 a 3.9995936,3.999578 0 0 0 0.06408,0.04526 c 0.09514,0.06091 0.193372,0.11594 0.293719,0.168735 a 3.9995936,3.999578 0 0 0 0.06563,0.03437 c 0.09949,0.05001 0.2007,0.09581 0.304654,0.137488 a 3.9995936,3.999578 0 0 0 0.09219,0.03437 c 0.06894,0.02567 0.135619,0.05627 0.20623,0.07808 0.03559,0.01099 0.07203,0.01681 0.107801,0.0266 a 3.9995936,3.999578 0 0 0 0.04215,0.01089 c 0.0969,0.0251 0.194429,0.04841 0.293717,0.06563 a 3.9995936,3.999578 0 0 0 0.321843,0.04526 c 0.0038,3.28e-4 0.0058,0.0015 0.0094,0.002 a 3.9995936,3.999578 0 0 0 0.0037,0 3.9995936,3.999578 0 0 0 0.409306,0.025 3.9995936,3.999578 0 0 0 0.768671,-0.07496 3.9995936,3.999578 0 0 0 0.0266,-0.0041 c 0.132903,-0.02474 0.2628,-0.05526 0.3921473,-0.09531 0.2215607,-0.06895 0.4390807,-0.165572 0.6436837,-0.271848 0.02674,-0.01392 0.05505,-0.02641 0.08121,-0.04058 a 3.9995936,3.999578 0 0 0 0.599939,-0.404646 c 0.01688,-0.01357 0.03487,-0.02523 0.05156,-0.03903 a 3.9995936,3.999578 0 0 0 0.459328,-0.459327 c 0.03212,-0.03701 0.0661,-0.07121 0.09687,-0.109366 a 3.9995936,3.999578 0 0 0 0.337468,-0.499914 c 0.03081,-0.05308 0.06217,-0.104768 0.09064,-0.159358 a 3.9995936,3.999578 0 0 0 0.232787,-0.548381 c 0.01235,-0.0361 0.03241,-0.06816 0.04371,-0.104676 0.011,-0.0356 0.01681,-0.07203 0.0266,-0.107804 0.0011,-0.0038 0.0026,-0.0058 0.0037,-0.0094 a 3.9995936,3.999578 0 0 0 0.0078,-0.03282 c 0.02511,-0.0969 0.0484,-0.19443 0.06563,-0.29372 a 3.9995936,3.999578 0 0 0 0.04526,-0.321842 3.9995936,3.999578 0 0 0 0.002,-0.0094 c 1.01e-4,-0.0013 -1.04e-4,-0.0024 0,-0.0037 a 3.9995936,3.999578 0 0 0 0.02498,-0.409331 3.9995936,3.999578 0 0 0 -0.07497,-0.768672 3.9995936,3.999578 0 0 0 -0.0041,-0.02659 c -0.02474,-0.132902 -0.05526,-0.2628 -0.09531,-0.392146 -0.0095,-0.03049 -0.02735,-0.05724 -0.03747,-0.08751 a 3.9995936,3.999578 0 0 0 -0.22829,-0.542155 c -0.02905,-0.05664 -0.05747,-0.112099 -0.08906,-0.167173 a 3.9995936,3.999578 0 0 0 -0.318721,-0.471824 c -0.02314,-0.02978 -0.04019,-0.06475 -0.06408,-0.09376 -0.04215,-0.05109 -0.09017,-0.09557 -0.135925,-0.142174 a 3.9995936,3.999578 0 0 0 -0.673368,-0.589 c -0.03079,-0.02193 -0.06068,-0.04457 -0.0922,-0.06563 a 3.9995936,3.999578 0 0 0 -0.07184,-0.04526 C 10.539294,19.097121 10.357263,18.99524 10.163064,18.91337 10.127264,18.89821 10.087854,18.8873 10.050577,18.87279 9.963327,18.83887 9.875833,18.80321 9.7881023,18.77592 9.7525023,18.76493 9.7160723,18.75911 9.6803,18.74933 9.6765,18.74823 9.6745,18.74673 9.6709,18.74563 A 3.9995936,3.999578 0 0 0 9.63808,18.73783 C 9.54118,18.71273 9.443649,18.68942 9.34436,18.6722 a 3.9995936,3.999578 0 0 0 -0.321843,-0.04526 3.9995936,3.999578 0 0 0 -0.0094,-0.002 c -0.0013,-1.04e-4 -0.0024,1.05e-4 -0.0037,0 A 3.9995936,3.999578 0 0 0 8.600059,18.6 Z m 0,0.799918 a 3.1996757,3.1996632 0 0 1 1.693577,0.490575 c -0.0022,0.004 -0.0045,0.004 -0.0058,0.0094 0.01462,0.02966 0.05155,0.03243 0.08592,0.03903 a 3.1996757,3.1996632 0 0 1 0.05313,0.03592 c 0.02001,0.02753 0.04395,0.06832 0.04841,0.0875 0.0052,0.02035 0.0088,0.09069 0,0.112487 -0.0226,0.05812 -0.08308,0.05147 -0.149984,0.04998 -0.0182,0 -0.03322,0.002 -0.04999,0 -0.11271,-0.007 -0.224074,-0.04312 -0.274971,0.03747 0.0038,0.06187 0.01388,0.0962 0,0.149984 -0.01012,0.0393 -0.0522,0.06586 -0.04999,0.09999 7.99e-4,0.01741 0.03317,0.05105 0.03747,0.07497 0.0038,0.01316 -0.0052,0.0384 0,0.04999 0.01892,0.03563 0.06659,-0.0052 0.09999,0 0.032,0.0042 0.06253,0.0519 0.06253,0.08749 0,0.02541 -0.0091,0.0753 -0.02504,0.09999 -0.032,0.048 -0.09166,0.03635 -0.137485,0.06253 -0.03778,0.02188 -0.05247,0.07475 -0.07495,0.11249 -0.024,0.0407 -0.04699,0.0543 -0.03747,0.112486 -0.0327,0.0647 -0.06994,0.106226 -0.1374857,0.137486 -0.0196,0.0088 -0.04434,0.02442 -0.06253,0.03747 -0.0146,0.01012 -0.0296,0.02675 -0.05,0.04998 -0.0254,0.02835 -0.06119,0.04062 -0.07496,0.06253 -0.0102,0.0167 -0.002,0.05247 -0.01245,0.07497 -0.016,0.0306 -0.04214,0.05699 -0.06253,0.08751 -0.0095,0.0146 -0.02746,0.0311 -0.03747,0.04998 -0.0233,0.04212 -0.0544,0.07546 -0.04998,0.112489 0.0038,0.03558 0.04781,0.04376 0.04998,0.07496 0.002,0.01741 -0.01325,0.0311 -0.01245,0.04998 8e-4,0.0276 0.01032,0.04072 0.01245,0.06253 0.0042,0.05378 -0.02738,0.07547 -0.03747,0.11249 -0.0042,0.0174 0.004,0.03628 0,0.04997 -0.0088,0.02683 -0.04924,0.04305 -0.05,0.07497 -8e-4,0.0226 0.03537,0.04305 0.03747,0.07497 0.002,0.0218 -0.01693,0.04214 -0.01245,0.06253 0.008,0.0393 0.08196,0.09446 0.112488,0.124987 0.04141,0.0414 0.08185,0.0689 0.09999,0.112486 0.0153,0.03708 0.0216,0.09736 0.04999,0.12499 0.02108,0.02036 0.06052,0.02899 0.08749,0.04997 0.0254,0.01961 0.06051,0.02899 0.0875,0.04999 0.04438,0.03484 0.1044377,0.105086 0.1749817,0.09999 0.03715,-0.0038 0.07101,-0.01783 0.112489,-0.02503 0.04284,-0.007 0.09387,-0.02937 0.137485,-0.02504 0.03342,0.004 0.06513,0.02725 0.09999,0.02504 0.03639,-0.0028 0.08356,-0.01937 0.124988,-0.03747 0.072,-0.0313 0.182762,-0.09029 0.287472,-0.07496 0.08,0.01164 0.08148,0.101876 0.137485,0.137488 0.064,0.0052 0.111587,-0.01236 0.162486,0 0.03859,0.0095 0.08383,0.08195 0.0875,0.112488 0.004,0.0313 -0.02065,0.05543 -0.02504,0.07496 -0.01012,0.04212 -0.01783,0.09809 -0.02503,0.124985 -0.0052,0.02114 -0.01319,0.04143 -0.01245,0.06253 0,0.01892 0.0304,0.06277 0.05,0.08749 0.024,0.0306 0.0584,0.05403 0.08749,0.08751 0.05315,0.06107 0.07546,0.144279 0.112483,0.224975 0.0095,0.02041 -0.0088,0.02452 0,0.04997 -0.016,0.122133 -0.0575,0.202258 -0.137482,0.337466 -0.03787,0.0436 -0.07577,0.09549 -0.07497,0.149987 -0.0038,0.13085 0.06836,0.198475 0.06253,0.324966 -2.12e-4,0.0033 1.99e-4,0.0023 0,0.0041 A 3.1996757,3.1996632 0 0 1 8.600544,25.799103 3.1996757,3.1996632 0 0 1 7.658455,25.658495 c 1.7e-4,-0.004 0.0046,-0.0046 0.0041,-0.0094 -0.002,-0.02116 -0.02078,-0.0311 -0.03747,-0.05 -0.0138,-0.016 -0.0038,-0.03548 -0.01246,-0.04997 -0.01741,-0.02541 -0.04275,-0.03796 -0.04999,-0.07497 0.05234,-0.01012 0.124354,0.05864 0.19998,0.03747 0.03563,-0.01012 0.09576,-0.07901 0.112486,-0.112487 0.0042,-0.01012 -0.0052,-0.05005 0,-0.06253 0.006,-0.0138 0.02284,-0.01783 0.02504,-0.02504 0.0042,-0.0196 -0.004,-0.02523 0,-0.03747 0.01308,-0.03714 0.0532,-0.0606 0.07497,-0.08748 0.0167,-0.0204 0.03475,-0.04143 0.04999,-0.06253 0.0174,-0.02259 0.02595,-0.0303 0.03747,-0.05001 0.01092,-0.06612 -0.04111,-0.116835 -0.02503,-0.174984 0.0174,-0.0654 0.111724,-0.107677 0.174982,-0.137483 0.02188,-0.01021 0.04433,-0.0309 0.06253,-0.03747 0.04358,-0.0153 0.09677,-0.01055 0.137487,-0.02505 0.06833,-0.0247 0.09154,-0.09997 0.124987,-0.162481 0.016,-0.02908 0.03457,-0.05396 0.03747,-0.07497 0.0028,-0.01885 -0.004,-0.04062 0,-0.06253 0.004,-0.02179 0.006,-0.03852 0.01245,-0.06253 0.008,-0.0313 0.01245,-0.09007 0.01245,-0.124986 0,-0.02908 -0.01175,-0.03635 -0.01245,-0.06253 -0.0042,-0.09451 0.02762,-0.09838 0.06253,-0.149984 0.0174,-0.02541 0.02518,-0.06931 0.03747,-0.0875 0.05883,-0.08724 0.157254,-0.130175 0.149983,-0.262475 -0.0038,-0.04358 -0.01799,-0.136168 -0.04997,-0.149984 -0.01821,-0.008 -0.06052,-0.0028 -0.0875,-0.01245 -0.08583,-0.032 -0.148037,-0.130215 -0.237477,-0.137486 -0.01892,-8e-4 -0.02899,8e-4 -0.04999,0 -0.03492,-8e-4 -0.07316,-0.03317 -0.112489,-0.03747 -0.0247,-0.0038 -0.073,0.007 -0.08751,0 -0.02258,-0.01085 -0.01937,-0.05015 -0.03747,-0.06253 -0.0146,-0.01012 -0.04002,-0.01713 -0.06253,-0.02504 -0.03563,-0.0138 -0.05858,-0.02207 -0.09999,-0.02504 -0.01308,-8e-4 -0.04802,0.0028 -0.06253,0 -0.0226,-0.0039 -0.04142,-0.02442 -0.06253,-0.03747 -0.02612,-0.016 -0.0391,-0.02748 -0.05001,-0.04999 0.024,-0.07859 -0.05905,-0.09168 -0.07497,-0.137488 -0.007,-0.02113 0.007,-0.05615 0,-0.07497 -0.0095,-0.02692 -0.03272,-0.04003 -0.06253,-0.06253 -0.05232,-0.0407 -0.100083,-0.07803 -0.17498,-0.08751 -0.03341,-0.0039 -0.07244,0.0028 -0.112488,0 -0.04212,-0.0038 -0.09302,-0.02614 -0.124987,-0.06253 -0.03059,-0.03562 -0.03559,-0.07077 -0.06253,-0.0875 -0.02541,-0.016 -0.07003,-0.02087 -0.08748,-0.03747 -0.008,-0.007 -0.0052,-0.02087 -0.01246,-0.03747 -0.01308,-0.0262 -0.04103,-0.03053 -0.02504,-0.06253 -0.02915,-0.01459 -0.01876,0.01833 -0.04999,0.01245 -0.02837,-0.04 -0.04842,-0.0623 -0.112487,-0.04999 -0.02916,0.0052 -0.05333,0.04922 -0.0875,0.04999 -0.0284,8e-4 -0.0504,-0.0449 -0.08751,-0.04999 -0.02838,-0.004 -0.06781,0.02937 -0.08751,0.02503 -0.0313,-0.0052 -0.03414,-0.04362 -0.06253,-0.06253 -0.02116,-0.01388 -0.06343,-0.05075 -0.07496,-0.05 -0.0364,8e-4 -0.0623,0.07689 -0.112487,0.05 -0.0247,-0.0313 0.04163,-0.03342 0.01245,-0.06253 -0.02188,-0.0218 -0.03252,8e-4 -0.04998,0.01245 -0.0204,0.0138 -0.04002,0.02958 -0.06253,0.03747 -0.05012,0.01883 -0.08575,0.01719 -0.124989,0.03747 -0.03637,0.01884 -0.04142,0.05041 -0.06253,0.0875 -0.0167,0.0306 -0.04955,0.07355 -0.07497,0.07497 -0.0306,0.002 -0.05979,-0.0383 -0.08749,-0.04997 -0.08358,-0.03639 -0.130907,0.02432 -0.199979,0.02504 -0.064,8e-4 -0.152888,-0.102145 -0.149984,-0.162486 0.002,-0.03713 0.02065,-0.09167 0.02504,-0.137481 0.004,-0.03638 0.03678,-0.06659 0.03747,-0.09999 8e-4,-0.04433 -0.07085,-0.08241 -0.09999,-0.0875 -0.04115,-0.0073 -0.08925,1.48e-4 -0.139047,0.0041 A 3.1996757,3.1996632 0 0 1 5.75312,21.143871 c 0.0031,7.37e-4 0.0068,0.004 0.0094,0.0041 0.0233,8e-4 0.0282,-0.02865 0.04998,-0.02504 0.02188,0.004 0.05884,0.04885 0.06253,0.07497 0.0038,0.0327 -0.022,0.06364 -0.01246,0.09999 0.03412,0.03492 0.101261,0.0547 0.149984,0.07497 0.032,-0.02612 0.0042,-0.08719 0,-0.124985 -8e-4,-0.0167 0.002,-0.03476 0,-0.04999 -0.004,-0.02612 -0.01245,-0.05247 -0.01245,-0.07497 0,-0.103958 0.08021,-0.146765 0.149985,-0.18748 0.0298,-0.01741 0.06123,-0.04943 0.08751,-0.06253 0.03708,-0.01812 0.05698,-0.02018 0.0875,-0.03747 0.0553,-0.0313 0.107076,-0.06437 0.149984,-0.09999 0.01961,-0.0473 -0.002,-0.103463 0,-0.149985 0.01961,-0.01235 0.0289,0.002 0.04999,0 0.03341,-0.007 0.04358,-0.05615 0.06253,-0.07497 0.01084,-0.01085 0.04934,-0.01416 0.06253,-0.02503 0.0334,-0.0262 0.03334,-0.06342 0.06253,-0.07497 0.01012,-0.004 0.03396,-0.0082 0.04999,-0.01246 0.02188,-0.0052 0.05251,-0.02523 0.0875,-0.03747 0.02259,-0.008 0.07878,-0.0039 0.08751,-0.01246 0.01083,-0.01085 -0.0038,-0.05825 0,-0.07496 0.01741,-0.08212 0.139037,-0.08488 0.212477,-0.112489 0.05084,-0.0196 0.105762,-0.0609 0.162484,-0.04999 -0.01092,0.0393 -0.05946,0.02777 -0.04999,0.07497 0.01236,0.06612 0.08919,-0.01562 0.112489,-0.02504 0.04437,-0.01883 0.129311,-0.029 0.18748,-0.04999 0.05082,-0.01812 0.135471,-0.0536 0.08749,-0.112487 -0.04,-0.0028 -0.0526,0.03547 -0.08749,0.04997 -0.024,0.004 -0.0297,-0.01103 -0.05,-0.01246 -0.01963,-8e-4 -0.0304,0.01613 -0.04999,0.01246 -0.01964,-0.004 -0.0471,-0.03923 -0.04997,-0.06253 -0.008,-0.06107 0.06278,-0.0799 0.0875,-0.124986 -0.0167,-0.0553 -0.09093,-0.0038 -0.137486,-0.02504 0.0042,-0.0327 0.02393,-0.06847 0.06253,-0.07497 0.0313,-0.0042 0.106077,0.01 0.124987,0.02505 0.01082,0.0095 -0.004,0.03475 0.01245,0.04999 0.01884,0.0167 0.05025,0.0041 0.07497,0 0.0088,-0.0414 -0.05724,-0.0231 -0.05,-0.04999 0.0494,-0.032 0.139623,-0.01713 0.19998,-0.02505 0.03482,-0.0042 0.0687,-0.03323 0.09999,-0.04998 0.02907,-0.0167 0.05701,-0.0402 0.08749,-0.01246 0.0088,0.0298 -0.02088,0.04723 -0.03747,0.06253 -0.056,0.0494 -0.106359,0.105059 -0.149986,0.162483 0.02684,0.02612 0.06746,0.007 0.11249,0.01245 0.01741,0.0028 0.04434,0.0097 0.06253,0.01245 0.02188,0.004 0.04509,-0.0039 0.06253,0 0.0306,0.007 0.03193,0.04997 0.06253,0.04997 0.04941,0 0.05337,-0.04155 0.02505,-0.07496 0.0088,-0.0342 0.02492,-0.06355 0.01245,-0.0875 -0.0226,-0.04514 -0.108128,0.007 -0.112487,-0.04998 -0.0038,-0.03636 0.0369,-0.04743 0.04998,-0.07496 -0.0052,-0.06979 0.05723,-0.07421 0.04998,-0.13749 -0.0039,-0.0262 -0.03181,-0.02532 -0.04998,-0.05 -0.0095,-0.01308 -0.01416,-0.04052 -0.02503,-0.05 -0.0094,-0.0079 -0.02254,-0.01075 -0.03437,-0.01561 a 3.1996757,3.1996632 0 0 1 0.596777,-0.05944 z M 6.48923,20.200429 c 0.0098,-0.0015 0.02473,0.0019 0.03592,0 0.0167,-8e-4 0.03172,0 0.04999,0 0.01812,0 0.04275,-0.007 0.04998,0 -0.01095,0.04518 -0.108153,0.03036 -0.151545,0.01402 a 3.1996757,3.1996632 0 0 1 0.01561,-0.01402 z m 4.27456,0.0484 a 3.1996757,3.1996632 0 0 1 0.360902,0.389024 c -0.02621,0 -0.05247,0.01246 -0.07497,0.01246 -0.032,8e-4 -0.09749,-0.01621 -0.137484,-0.01246 -0.024,0.002 -0.04003,0.01103 -0.06253,0.01246 -0.0633,0.0042 -0.10054,-0.004 -0.149982,0 -0.03562,0.0028 -0.104034,0.02227 -0.137486,0.03747 -0.0167,0.008 -0.02819,0.02665 -0.04999,0.03747 -0.01012,0.0042 -0.02438,0.006 -0.03747,0.01245 -0.02034,0.0095 -0.05543,0.03241 -0.07497,0.03747 -0.02836,0.007 -0.0609,-0.0028 -0.11249,0 -0.03712,0.002 -0.09926,-0.0052 -0.09999,-0.04999 -8e-4,-0.0676 0.123497,-0.0384 0.187481,-0.04998 0.024,-0.0042 0.03334,-0.03323 0.06253,-0.05 0.01388,-0.008 0.02436,-0.01637 0.03747,-0.02504 0.02179,-0.0153 0.05885,-0.04509 0.06253,-0.06253 0.0028,-0.016 -0.01478,-0.0384 -0.01245,-0.04997 0.0038,-0.0153 0.0304,-0.0304 0.04998,-0.04998 0.03059,-0.03059 0.04969,-0.0678 0.0875,-0.08751 0.0254,-0.0138 0.07582,-0.01719 0.08751,-0.03747 0.0038,-0.0233 -7.9e-4,-0.029 0,-0.04998 0.0091,-0.0082 0.01114,-0.0099 0.01402,-0.01403 z m 0.423395,0.476514 a 3.1996757,3.1996632 0 0 1 0.135923,0.199979 c -0.0039,-8.5e-5 -0.0061,7e-4 -0.01089,0 -0.0247,-0.0028 -0.06711,-1.57e-4 -0.08751,-0.01246 -0.01964,-0.01235 -0.06997,-0.03324 -0.07497,-0.04997 -0.008,-0.02684 0.0611,-0.065 0.06253,-0.08751 0.002,-0.01741 -0.02136,-0.02381 -0.02504,-0.04998 z M 5.41278,22.331434 c 0.0194,0.02828 0.04037,0.05587 0.06253,0.06874 0.002,0.0233 -0.007,0.04509 0,0.06253 0.01883,0.02541 0.05701,0.03322 0.08751,0.04997 0.03708,0.02035 0.05251,0.07154 0.08748,0.0875 0.01235,0.0042 0.0311,-0.0052 0.04997,0 0.048,0.0146 0.05858,0.08741 0.09999,0.07496 0.02683,-0.008 0.03315,-0.04885 0.03747,-0.07496 0.01812,-0.01958 0.03404,-0.04997 0.06253,-0.04997 0.04514,-7.99e-4 0.05825,0.05562 0.07497,0.09999 0.0095,0.0247 0.03089,0.04885 0.03747,0.07496 0.01084,0.04507 0.0095,0.173086 0,0.199979 -0.01165,0.0334 -0.0598,0.05109 -0.08749,0.08751 -0.01308,0.0174 -0.02737,0.0384 -0.03747,0.04999 -0.01741,0.0218 -0.0369,0.0304 -0.04997,0.04999 -0.007,0.01085 -0.0052,0.03475 -0.01245,0.04998 -0.02187,0.0465 -0.05562,0.0815 -0.03747,0.137489 0.007,0.0226 0.03747,0.04815 0.03747,0.07496 0,0.032 -0.06994,0.04015 -0.07497,0.07497 -0.004,0.0254 0.02948,0.0783 0.03747,0.112488 0.0052,0.02541 0.04723,0.0458 0.06253,0.06253 0.02541,0.02834 0.05176,0.06363 0.07497,0.09999 0.04588,0.0706 0.06746,0.155912 0.11249,0.224979 0.024,0.03558 0.07154,0.06212 0.08751,0.09999 0.008,0.01883 -0.007,0.05765 0,0.07496 0.02612,0.05884 0.153572,0.120909 0.212477,0.149985 0.02762,0.01388 0.04955,0.02297 0.07497,0.03747 0.03859,0.02188 0.117851,0.06587 0.137486,0.09999 0.01741,0.03059 0.02868,0.101277 0.03747,0.149983 0.01082,0.064 -0.0038,0.118417 0,0.187481 0.002,0.03788 0.01245,0.06212 0.01245,0.09999 0,0.01308 8e-4,0.0369 0,0.05001 -8e-4,0.04507 0.004,0.09167 0,0.137485 -0.0015,0.01857 -5.96e-4,0.03798 0,0.05628 a 3.1996757,3.1996632 0 0 1 -1.199875,-2.493499 3.1996757,3.1996632 0 0 1 0.01245,-0.268722 z m 0.999898,0.156231 c 0.03492,-0.016 0.02834,0.0456 0,0.04998 -0.02692,0.004 -0.02612,-0.0376 0,-0.04998 z"
     style="color:#eff0f1;fill:#80b2b2;fill-opacity:1;stroke:none;stroke-width:0.799916" />
</svg>
