<?xml version="1.0" encoding="UTF-8" standalone="no"?>
<svg
   xmlns:dc="http://purl.org/dc/elements/1.1/"
   xmlns:cc="http://creativecommons.org/ns#"
   xmlns:rdf="http://www.w3.org/1999/02/22-rdf-syntax-ns#"
   xmlns:svg="http://www.w3.org/2000/svg"
   xmlns="http://www.w3.org/2000/svg"
   xmlns:xlink="http://www.w3.org/1999/xlink"
   xmlns:sodipodi="http://sodipodi.sourceforge.net/DTD/sodipodi-0.dtd"
   xmlns:inkscape="http://www.inkscape.org/namespaces/inkscape"
   viewBox="0 0 32 32"
   version="1.1"
   id="svg6"
   sodipodi:docname="system-lock-screen.svg"
   inkscape:version="1.0.1 (3bc2e813f5, 2020-09-07)">
  <metadata
     id="metadata10">
    <rdf:RDF>
      <cc:Work
         rdf:about="">
        <dc:format>image/svg+xml</dc:format>
        <dc:type
           rdf:resource="http://purl.org/dc/dcmitype/StillImage" />
      </cc:Work>
    </rdf:RDF>
  </metadata>
  <sodipodi:namedview
     pagecolor="#ffffff"
     bordercolor="#666666"
     borderopacity="1"
     objecttolerance="10"
     gridtolerance="10"
     guidetolerance="10"
     inkscape:pageopacity="0"
     inkscape:pageshadow="2"
     inkscape:window-width="1920"
     inkscape:window-height="1016"
     id="namedview8"
     showgrid="false"
     inkscape:zoom="19.625"
     inkscape:cx="7.7707006"
     inkscape:cy="16"
     inkscape:window-x="0"
     inkscape:window-y="0"
     inkscape:window-maximized="1"
     inkscape:current-layer="svg6" />
  <defs
     id="defs3051">
    <linearGradient
       inkscape:collect="always"
       id="linearGradient839">
      <stop
         style="stop-color:#8585ad;stop-opacity:1"
         offset="0"
         id="stop835" />
      <stop
         style="stop-color:#80b2b2;stop-opacity:1"
         offset="1"
         id="stop837" />
    </linearGradient>
    <style
       type="text/css"
       id="current-color-scheme">
      .ColorScheme-Text {
        color:#eff0f1;
      }
      </style>
    <linearGradient
       inkscape:collect="always"
       xlink:href="#linearGradient839"
       id="linearGradient841"
       x1="4"
       y1="16"
       x2="28"
       y2="16"
       gradientUnits="userSpaceOnUse" />
  </defs>
  <path
     style="fill:url(#linearGradient841);fill-opacity:1;stroke:none"
     d="M 16,4 C 9.372583,4 4,9.372583 4,16 4,22.627417 9.372583,28 16,28 22.627417,28 28,22.627417 28,16 28,9.372583 22.627417,4 16,4 Z m 0,1 C 22.075132,5 27,9.924868 27,16 27,22.075132 22.075132,27 16,27 9.924868,27 5,22.075132 5,16 5,9.924868 9.924868,5 16,5 Z m 0,3 c -2.216,0 -4,1.784 -4,4 l 0,4 -2,0 0,1 0,7 1,0 10,0 1,0 0,-8 -1,0 -1,0 0,-4 C 20,9.784 18.216,8 16,8 Z m 0,1 c 1.662,0 3,1.561 3,3.5 l 0,3.5 -6,0 0,-3.5 C 13,10.561 14.338,9 16,9 Z m -5,8 10,0 0,6 -10,0 0,-6 z"
     class="ColorScheme-Text"
     id="path4" />
</svg>
