<?xml version="1.0" encoding="UTF-8" standalone="no"?>
<svg
   xmlns:dc="http://purl.org/dc/elements/1.1/"
   xmlns:cc="http://creativecommons.org/ns#"
   xmlns:rdf="http://www.w3.org/1999/02/22-rdf-syntax-ns#"
   xmlns:svg="http://www.w3.org/2000/svg"
   xmlns="http://www.w3.org/2000/svg"
   xmlns:xlink="http://www.w3.org/1999/xlink"
   xmlns:sodipodi="http://sodipodi.sourceforge.net/DTD/sodipodi-0.dtd"
   xmlns:inkscape="http://www.inkscape.org/namespaces/inkscape"
   inkscape:version="1.0.1 (3bc2e813f5, 2020-09-07)"
   sodipodi:docname="folder_html.svg"
   id="svg12"
   version="1.1"
   viewBox="0 0 64 64">
  <metadata
     id="metadata16">
    <rdf:RDF>
      <cc:Work
         rdf:about="">
        <dc:format>image/svg+xml</dc:format>
        <dc:type
           rdf:resource="http://purl.org/dc/dcmitype/StillImage" />
        <dc:title />
      </cc:Work>
    </rdf:RDF>
  </metadata>
  <sodipodi:namedview
     inkscape:document-rotation="0"
     inkscape:current-layer="svg12"
     inkscape:window-maximized="1"
     inkscape:window-y="0"
     inkscape:window-x="0"
     inkscape:cy="33.956387"
     inkscape:cx="-34.055691"
     inkscape:zoom="5.2609472"
     showgrid="false"
     id="namedview14"
     inkscape:window-height="1007"
     inkscape:window-width="1920"
     inkscape:pageshadow="2"
     inkscape:pageopacity="0"
     guidetolerance="10"
     gridtolerance="10"
     objecttolerance="10"
     borderopacity="1"
     bordercolor="#666666"
     pagecolor="#ffffff" />
  <defs
     id="defs3051">
    <linearGradient
       inkscape:collect="always"
       id="linearGradient848">
      <stop
         style="stop-color:#00c4c4;stop-opacity:1"
         offset="0"
         id="stop844" />
      <stop
         style="stop-color:#7f2aff;stop-opacity:1"
         offset="1"
         id="stop846" />
    </linearGradient>
    <style
       id="current-color-scheme"
       type="text/css">
      .ColorScheme-Text {
        color:#31363b;
      }
      .ColorScheme-Background {
        color:#eff0f1;
      }
      .ColorScheme-Highlight {
        color:#3daee9;
      }
      .ColorScheme-ViewText {
        color:#31363b;
      }
      .ColorScheme-ViewBackground {
        color:#fcfcfc;
      }
      .ColorScheme-ViewHover {
        color:#93cee9;
      }
      .ColorScheme-ViewFocus{
        color:#3daee9;
      }
      .ColorScheme-ButtonText {
        color:#31363b;
      }
      .ColorScheme-ButtonBackground {
        color:#eff0f1;
      }
      .ColorScheme-ButtonHover {
        color:#93cee9;
      }
      .ColorScheme-ButtonFocus{
        color:#3daee9;
      }
      </style>
    <linearGradient
       inkscape:collect="always"
       xlink:href="#linearGradient848"
       id="linearGradient850"
       x1="0"
       y1="247.5"
       x2="495"
       y2="247.5"
       gradientUnits="userSpaceOnUse" />
  </defs>
  <g
     id="g8"
     transform="matrix(0.11428571,0,0,0.11428571,3.7762141,4.2052238)"
     style="fill:url(#linearGradient850);fill-opacity:1">
    <path
       d="M 439.5,84 H 234.729 L 198.09,45.279 C 182.464,28.269 164.607,20 143.5,20 h -88 C 24.897,20 0,44.897 0,75.5 v 344 C 0,450.103 24.897,475 55.5,475 h 384 c 30.603,0 55.5,-24.897 55.5,-55.5 v -280 C 495,108.897 470.103,84 439.5,84 Z M 480,419.5 c 0,22.332 -18.168,40.5 -40.5,40.5 H 55.5 C 33.168,460 15,441.832 15,419.5 v -232 C 15,165.168 33.168,147 55.5,147 h 384 c 22.332,0 40.5,18.168 40.5,40.5 z M 439.5,132 H 55.5 C 39.536,132 25.135,138.784 15,149.61 V 75.5 C 15,53.168 33.168,35 55.5,35 h 88 c 16.92,0 30.768,6.503 43.579,20.465 0.026,0.028 0.052,0.057 0.079,0.084 l 38.895,41.105 C 227.469,98.151 229.439,99 231.5,99 h 208 c 22.332,0 40.5,18.168 40.5,40.5 v 10.11 C 469.865,138.784 455.464,132 439.5,132 Z"
       id="path2"
       style="fill:#8585ad;fill-opacity:1" />
    <path
       d="m 431.5,180 h -104 c -4.142,0 -7.5,3.357 -7.5,7.5 0,4.143 3.358,7.5 7.5,7.5 h 104 c 4.142,0 7.5,-3.357 7.5,-7.5 0,-4.143 -3.358,-7.5 -7.5,-7.5 z"
       id="path4-3"
       style="fill:#d3dae3;fill-opacity:1" />
    <path
       d="m 431.5,220 h -104 c -4.142,0 -7.5,3.357 -7.5,7.5 0,4.143 3.358,7.5 7.5,7.5 h 104 c 4.142,0 7.5,-3.357 7.5,-7.5 0,-4.143 -3.358,-7.5 -7.5,-7.5 z"
       id="path6-6"
       style="fill:#d3dae3;fill-opacity:1" />
  </g>
  <path
     style="color:#eff0f1;fill:#80b2b2;fill-opacity:1;stroke:none;stroke-width:0.799996"
     d="m 17.999999,36 c -0.277004,0 -0.555407,0.02283 -0.825002,0.05003 -0.539171,0.05444 -1.048361,0.144635 -1.549986,0.299999 -2.508074,0.776833 -4.498145,2.766902 -5.274982,5.274981 -0.155358,0.501618 -0.245566,1.010811 -0.299999,1.549991 C 10.02283,43.444589 10,43.722999 10,43.999999 c 0,0.277002 0.02283,0.555408 0.05003,0.825 0.0544,0.539177 0.144641,1.048369 0.299999,1.549987 0.776837,2.508081 2.766908,4.498149 5.274982,5.274981 0.501625,0.155366 1.010815,0.24557 1.549986,0.299999 0.269595,0.02722 0.547998,0.05004 0.825002,0.05004 0.276998,0 0.555416,-0.02282 0.824995,-0.05004 0.539185,-0.05444 1.048376,-0.144633 1.549992,-0.299999 0.501008,-0.155831 0.996585,-0.378694 1.449999,-0.624998 1.813959,-0.982972 3.203518,-2.643517 3.824984,-4.649983 0.155362,-0.501618 0.24557,-1.01081 0.299999,-1.549987 0.0272,-0.269592 0.05005,-0.547998 0.05005,-0.825 0,-0.276138 -0.02277,-0.556066 -0.05005,-0.824998 -0.0544,-0.53918 -0.144637,-1.048373 -0.299999,-1.549991 -0.310728,-1.003228 -0.823887,-1.935378 -1.475001,-2.724986 -0.163032,-0.197551 -0.344029,-0.369041 -0.52499,-0.550006 -0.723004,-0.722997 -1.567243,-1.321244 -2.524991,-1.724986 -0.239278,-0.101213 -0.499492,-0.197091 -0.750001,-0.275007 -0.501616,-0.155363 -1.010807,-0.245568 -1.549992,-0.299999 -0.269579,-0.02722 -0.547997,-0.05002 -0.824995,-0.05002 z m 0,0.799996 c 1.210635,0 2.348648,0.297127 3.349987,0.824999 0.02642,0.01392 0.04874,0.03576 0.07492,0.05003 0.0202,0.02677 0.0144,0.05531 0.05002,0.07496 0.0262,0.0146 0.05042,0.037 0.07493,0.05003 0.0422,0.02326 0.08373,0.05925 0.07491,0.1 -0.01163,0.05963 -0.10928,0.05638 -0.150004,0.1 0.006,0.08433 -0.0282,0.06827 -0.05003,0.124999 0.01317,0.03638 0.0442,0.03135 0.05003,0.07496 -0.008,0.0466 -0.06755,0.05201 -0.05003,0.1 0.0786,0.06117 0.150821,0.0102 0.224995,0 0.162896,-0.02037 0.299642,0.004 0.399997,-0.07495 -0.0105,-0.06218 0.04886,-0.08 0.07491,-0.124999 0.05317,0.03724 0.09797,0.08639 0.149994,0.124999 -0.0306,0.01317 -0.09735,0.0326 -0.124997,0.05002 -0.04077,0.02764 -0.05349,0.06953 -0.1,0.1 -0.0334,0.02328 -0.115084,0.1 -0.150001,0.1 -0.0422,0 -0.119452,-0.03515 -0.149997,-0.02495 -0.0437,0.01316 -0.0256,0.08252 -0.07491,0.1 -0.09599,0.03486 -0.266551,-0.0939 -0.299998,0.05003 0.04074,0.08286 0.177279,0.05497 0.249996,0.1 0.04517,0.02917 0.11337,0.175559 0.124994,0.224999 0.01163,0.04077 0.0174,0.181384 0,0.224996 -0.04517,0.116319 -0.166191,0.102915 -0.299998,0.1 -0.03638,0 -0.0665,0.0037 -0.1,0 -0.225431,-0.0146 -0.448178,-0.08638 -0.549996,0.07495 0.0079,0.123588 0.0277,0.192397 0,0.299998 -0.0203,0.0785 -0.104363,0.131656 -0.1,0.199999 0.002,0.03483 0.06628,0.102007 0.07491,0.149998 0.006,0.0262 -0.0117,0.07677 0,0.1 0.0378,0.07126 0.133097,-0.01165 0.199999,0 0.064,0.0102 0.125002,0.103753 0.125002,0.174995 0,0.05083 -0.01803,0.15056 -0.05003,0.199999 -0.064,0.09596 -0.183368,0.07271 -0.275003,0.125004 -0.07563,0.04364 -0.104912,0.149381 -0.149995,0.225001 -0.048,0.08138 -0.09392,0.108679 -0.07491,0.224999 -0.0654,0.129407 -0.139741,0.212471 -0.274995,0.274998 -0.03926,0.0174 -0.08868,0.04884 -0.125003,0.07495 -0.02916,0.0203 -0.0592,0.05346 -0.1,0.1 -0.05084,0.05676 -0.122366,0.08134 -0.149998,0.125004 -0.02037,0.0334 -0.0037,0.104924 -0.02492,0.149997 -0.032,0.06117 -0.08427,0.113929 -0.124998,0.175002 -0.01883,0.02917 -0.05477,0.06208 -0.07492,0.1 -0.0466,0.08433 -0.108734,0.150847 -0.1,0.224996 0.008,0.07122 0.09563,0.08746 0.1,0.150001 0.0041,0.03484 -0.02648,0.06213 -0.02492,0.1 0.002,0.05524 0.0206,0.08133 0.02492,0.125001 0.0102,0.107594 -0.05476,0.150838 -0.07491,0.224995 -0.0102,0.03485 0.0082,0.0724 0,0.1 -0.0174,0.0538 -0.09854,0.08601 -0.1,0.150001 -0.002,0.04516 0.07068,0.08603 0.07491,0.149998 0.0037,0.04362 -0.0338,0.08428 -0.02492,0.124997 0.016,0.0786 0.163915,0.18893 0.224995,0.250006 0.08288,0.08285 0.163647,0.13775 0.2,0.224996 0.0306,0.0742 0.0433,0.194742 0.1,0.249998 0.0422,0.04075 0.121194,0.05791 0.175001,0.1 0.05085,0.03925 0.121179,0.05784 0.175001,0.1 0.08873,0.0698 0.208906,0.210182 0.349995,0.199999 0.0742,-0.006 0.142093,-0.03554 0.224997,-0.05002 0.08579,-0.0146 0.187742,-0.0587 0.275001,-0.05002 0.06684,0.008 0.130197,0.0544 0.2,0.05002 0.07278,-0.0041 0.167103,-0.03872 0.25,-0.07495 0.143991,-0.0626 0.365562,-0.180532 0.574993,-0.149993 0.159984,0.02322 0.163007,0.203743 0.275003,0.274997 0.127981,0.01163 0.22319,-0.02476 0.324993,0 0.07717,0.01885 0.167735,0.163927 0.175005,0.225001 0.0079,0.0626 -0.04123,0.110742 -0.05004,0.149993 -0.0203,0.08434 -0.03555,0.196203 -0.05003,0.250005 -0.01162,0.0422 -0.02644,0.08279 -0.0249,0.124992 0,0.0378 0.0607,0.125566 0.1,0.175006 0.048,0.06117 0.11682,0.10811 0.175003,0.174999 0.106171,0.122135 0.150818,0.288583 0.224996,0.449993 0.01883,0.04079 -0.0174,0.04907 0,0.1 -0.032,0.244294 -0.115019,0.404544 -0.275,0.675002 -0.07563,0.08722 -0.151451,0.190943 -0.149995,0.299998 -0.006,0.261726 0.13664,0.396989 0.124996,0.649991 -0.0262,0.340255 0.002,0.393247 -0.02492,0.575 0.114905,0.0582 0.05838,0.229307 0.02492,0.350002 -0.0494,0.143934 -0.09736,0.179029 -0.124996,0.274992 0.0597,0.02585 0.109627,0.03231 0.174994,0.02495 -1.309953,1.361932 -3.161066,2.199988 -5.199973,2.199988 -0.954387,0 -1.866498,-0.18776 -2.699987,-0.524998 -0.0037,-0.0014 0.0037,-0.02383 0,-0.02495 0.07563,-0.032 0.219732,0.0562 0.274994,-0.05004 0.0277,-0.05083 -0.03638,-0.1491 0,-0.199998 0.0262,-0.03483 0.196194,-0.0663 0.250003,-0.07496 0.07716,-0.01315 0.156362,0.003 0.199998,-0.02495 0.048,-0.0306 0.108725,-0.109854 0.1,-0.199999 -0.0041,-0.0422 -0.0417,-0.06216 -0.07492,-0.1 -0.02763,-0.032 -0.007,-0.07093 -0.0249,-0.1 -0.03483,-0.05084 -0.08548,-0.07584 -0.1,-0.150007 0.104713,-0.0203 0.248738,0.117199 0.399997,0.07496 0.07123,-0.02037 0.191545,-0.15812 0.224999,-0.224999 0.0102,-0.02038 -0.01163,-0.100243 0,-0.125007 0.01314,-0.02762 0.04561,-0.03554 0.05002,-0.05002 0.0102,-0.03926 -0.0082,-0.0504 0,-0.07496 0.0262,-0.0742 0.106359,-0.121193 0.15,-0.175 0.0334,-0.04071 0.06949,-0.08279 0.1,-0.124999 0.03484,-0.04517 0.05187,-0.06065 0.07493,-0.1 0.0218,-0.132319 -0.08203,-0.233672 -0.05004,-0.349992 0.03485,-0.130864 0.223468,-0.215387 0.349993,-0.274998 0.04362,-0.02037 0.08867,-0.06194 0.125003,-0.07495 0.08722,-0.0306 0.193546,-0.021 0.274994,-0.05 0.136726,-0.0494 0.183092,-0.199964 0.250006,-0.325004 0.032,-0.0582 0.06917,-0.107832 0.07493,-0.149999 0.006,-0.0378 -0.008,-0.08132 0,-0.124996 0.0079,-0.04362 0.0135,-0.07706 0.02492,-0.125004 0.016,-0.0626 0.02491,-0.180206 0.02491,-0.249999 0,-0.0582 -0.0235,-0.07267 -0.02491,-0.124995 -0.0102,-0.189029 0.0552,-0.196771 0.125,-0.299999 0.03483,-0.05085 0.05039,-0.138656 0.07492,-0.175003 0.117806,-0.174487 0.314543,-0.260362 0.299999,-0.524994 -0.006,-0.08724 -0.03601,-0.27237 -0.1,-0.299999 -0.03637,-0.016 -0.121188,-0.0049 -0.175,-0.02495 -0.171626,-0.064 -0.296114,-0.260463 -0.475002,-0.275003 -0.0378,-0.002 -0.05789,0.002 -0.1,0 -0.0698,-0.002 -0.146463,-0.0663 -0.224997,-0.07496 -0.0494,-0.006 -0.145911,0.0146 -0.175002,0 -0.04517,-0.0218 -0.03868,-0.100282 -0.07493,-0.125001 -0.02916,-0.02035 -0.0799,-0.03403 -0.125001,-0.05004 -0.07126,-0.02762 -0.117094,-0.04411 -0.199999,-0.05002 -0.0262,-0.002 -0.09594,0.0042 -0.125002,0 -0.04517,-0.008 -0.08279,-0.04879 -0.124999,-0.07495 -0.0523,-0.032 -0.07812,-0.05494 -0.1,-0.1 0.048,-0.157045 -0.117997,-0.183405 -0.149997,-0.275006 -0.0146,-0.0422 0.0146,-0.112185 0,-0.149998 -0.01883,-0.0538 -0.06533,-0.07992 -0.125004,-0.125 -0.104716,-0.08139 -0.20019,-0.156101 -0.349995,-0.174998 -0.06685,-0.008 -0.145008,0.006 -0.224998,0 -0.08435,-0.006 -0.186008,-0.05229 -0.25,-0.125001 -0.06116,-0.07123 -0.07119,-0.141558 -0.125,-0.174997 -0.05084,-0.032 -0.140099,-0.04165 -0.174998,-0.07496 -0.016,-0.0146 -0.01046,-0.04165 -0.02494,-0.07496 -0.0262,-0.05236 -0.08201,-0.0611 -0.05002,-0.124994 -0.0582,-0.02915 -0.03749,0.03665 -0.1,0.02495 -0.05675,-0.08 -0.09702,-0.124713 -0.225002,-0.1 -0.0582,0.01163 -0.106637,0.09855 -0.174996,0.1 -0.05674,0.002 -0.100826,-0.08984 -0.175001,-0.1 -0.05677,-0.008 -0.135727,0.0587 -0.175,0.05003 -0.0626,-0.01163 -0.0683,-0.08716 -0.124998,-0.125004 -0.0422,-0.0277 -0.126725,-0.101446 -0.150001,-0.1 -0.07274,0.002 -0.124649,0.153803 -0.224999,0.1 -0.0494,-0.0626 0.08321,-0.06683 0.02491,-0.125003 -0.04361,-0.04362 -0.065,0.0022 -0.1,0.02495 -0.04075,0.02764 -0.0799,0.05905 -0.124999,0.07495 -0.100359,0.0378 -0.171463,0.03439 -0.25,0.07496 -0.07273,0.0378 -0.08277,0.10084 -0.124998,0.174997 -0.0334,0.06116 -0.09909,0.147091 -0.149999,0.150002 -0.06117,0.0042 -0.119728,-0.07673 -0.174999,-0.1 -0.167259,-0.07274 -0.261836,0.0486 -0.399998,0.05002 -0.127995,0.002 -0.305818,-0.204301 -0.299999,-0.324992 0.0041,-0.0742 0.04124,-0.183406 0.05003,-0.275005 0.008,-0.07273 0.0737,-0.133109 0.07492,-0.199999 0.002,-0.08868 -0.141824,-0.164811 -0.199999,-0.174995 -0.136717,-0.02473 -0.319372,0.06115 -0.474996,0 -0.02916,-0.0494 0.0575,-0.07706 0.07492,-0.125003 0.0102,-0.02762 -0.0102,-0.04439 0,-0.07495 0.0174,-0.0466 0.07812,-0.0756 0.1,-0.125005 0.016,-0.0378 0.0085,-0.103459 0.02491,-0.149999 0.01885,-0.05238 0.0706,-0.08722 0.07493,-0.124994 0.006,-0.0494 -0.0358,-0.118014 -0.07493,-0.150007 -0.120723,0.008 -0.205188,0.01838 -0.274998,0.05003 -0.157079,0.07122 -0.116469,0.275561 -0.275005,0.324994 -0.0538,0.0174 -0.138908,0.0398 -0.199998,0.05003 0.103461,-0.523421 0.264769,-1.024035 0.475003,-1.499992 0.05524,0.0102 0.102005,0.04559 0.149996,0.05004 0.13381,0.0102 0.139454,-0.09188 0.250001,-0.149995 0.113447,0.016 0.17173,-0.01165 0.275,0 0.0698,0.0079 0.169732,0.09562 0.224998,0.1 0.0466,0.002 0.05635,-0.05725 0.1,-0.05003 0.04364,0.008 0.117727,0.09765 0.124995,0.150007 0.008,0.0654 -0.04398,0.127289 -0.02491,0.199999 0.06837,0.0698 0.202553,0.109287 0.299998,0.149992 0.064,-0.05236 0.0102,-0.174382 0,-0.249991 -0.002,-0.0334 0.0042,-0.06946 0,-0.1 -0.008,-0.0523 -0.0249,-0.104931 -0.0249,-0.150007 0,-0.207921 0.160375,-0.293566 0.3,-0.374996 0.05961,-0.03483 0.122638,-0.09882 0.174997,-0.125002 0.0742,-0.03638 0.113916,-0.04015 0.175,-0.07496 0.110531,-0.0626 0.214185,-0.128744 0.299998,-0.2 0.03924,-0.09451 -0.004,-0.206946 0,-0.299997 0.03924,-0.02474 0.05789,0.0041 0.1,0 0.06684,-0.0146 0.08719,-0.112203 0.124999,-0.15 0.0218,-0.0218 0.09879,-0.0282 0.125,-0.05002 0.06685,-0.05239 0.06677,-0.126727 0.125003,-0.149999 0.02037,-0.008 0.06792,-0.01633 0.1,-0.02495 0.0437,-0.01162 0.105191,-0.0504 0.174997,-0.07495 0.04516,-0.016 0.157545,-0.0081 0.174999,-0.02495 0.0218,-0.0218 -0.006,-0.116552 0,-0.149999 0.03484,-0.164302 0.278099,-0.169735 0.424999,-0.224997 0.101808,-0.03923 0.211551,-0.121817 0.325,-0.1 -0.0218,0.0785 -0.118914,0.05544 -0.1,0.149998 0.02473,0.13232 0.178453,-0.03115 0.224996,-0.05002 0.08876,-0.0378 0.258639,-0.05785 0.375001,-0.1 0.101805,-0.0363 0.270976,-0.107224 0.174996,-0.225001 -0.08,-0.006 -0.105191,0.07094 -0.174996,0.1 -0.048,0.008 -0.0593,-0.02207 -0.1,-0.02495 -0.03926,-0.002 -0.0607,0.03232 -0.1,0.02495 -0.03926,-0.0079 -0.09417,-0.07849 -0.1,-0.124999 -0.016,-0.122135 0.125557,-0.159847 0.174996,-0.249997 -0.0334,-0.110512 -0.181919,-0.007 -0.274996,-0.05002 0.0102,-0.0654 0.0479,-0.136903 0.124995,-0.149996 0.0626,-0.0102 0.212185,0.0198 0.250001,0.05002 0.0218,0.01883 -0.0081,0.06945 0.0249,0.1 0.0378,0.0334 0.100558,0.008 0.150005,0 0.0174,-0.08286 -0.114542,-0.04615 -0.1,-0.1 0.0989,-0.064 0.279273,-0.03405 0.399997,-0.05002 0.0698,-0.0102 0.137458,-0.06649 0.199999,-0.1 0.0582,-0.0334 0.113913,-0.08033 0.174999,-0.02495 0.0174,0.05961 -0.0417,0.09447 -0.07492,0.124998 -0.111992,0.09887 -0.212733,0.210135 -0.299999,0.324999 0.0538,0.05238 0.134826,0.01487 0.224998,0.02495 0.03484,0.0041 0.08867,0.01925 0.125003,0.02495 0.0437,0.008 0.09011,-0.008 0.124996,0 0.06116,0.0146 0.0639,0.1 0.125,0.1 0.0989,0 0.106759,-0.0831 0.05002,-0.150002 0.0174,-0.06836 0.04988,-0.127004 0.0249,-0.174996 -0.04515,-0.09018 -0.21627,0.01486 -0.225004,-0.1 -0.006,-0.07276 0.07388,-0.09475 0.1,-0.149999 -0.01161,-0.139585 0.114545,-0.148495 0.1,-0.275001 -0.0079,-0.05238 -0.06355,-0.05056 -0.1,-0.1 -0.01883,-0.0262 -0.0282,-0.08108 -0.05001,-0.1 -0.07562,-0.064 -0.216273,-0.05286 -0.224999,-0.174996 -0.0041,-0.07276 0.0102,-0.121489 0,-0.199999 -0.0102,-0.0742 -0.08602,-0.285454 -0.149999,-0.3 -0.08141,-0.0174 -0.127552,0.129928 -0.224998,0.174998 -0.0523,0.02476 -0.146195,0.03525 -0.200001,0.02495 -0.03484,-0.008 -0.09561,-0.03315 -0.1,-0.1 -0.0041,-0.03855 0.0084,-0.05215 0.02491,-0.07495 0.004,-0.0057 -0.0041,-0.01939 0,-0.02495 0.632797,-0.181859 1.308709,-0.274996 1.99999,-0.274996 z m -2.974985,0.650001 c -0.071,0.227285 -0.276428,0.357037 -0.550004,0.349994 -0.06683,0.064 -0.03869,0.186299 -0.07493,0.274997 -0.0306,0.0742 -0.125839,0.13083 -0.199999,0.125001 -0.0538,-0.0042 -0.150008,-0.07414 -0.150008,-0.125001 0,-0.04173 0.04037,-0.08882 0.05002,-0.124992 0.294433,-0.190384 0.603094,-0.353546 0.92499,-0.499999 z m 6.124973,0.249994 c -0.02675,0.005 -0.05149,0.01115 -0.07491,0.02495 -0.05527,0.0334 -0.05789,0.08403 -0.1,0.1 -0.05963,0.0218 -0.141271,0.02125 -0.150006,0.07495 -0.0079,0.04517 0.05156,0.05932 0.05003,0.1 -0.0218,0.0538 -0.06329,0.05957 -0.07493,0.125003 0.0742,0.120686 0.258383,0.0016 0.350004,-0.02495 0.04075,-0.01163 0.0781,0.0074 0.1,-0.02495 0.02475,-0.03924 0.007,-0.119734 0.02493,-0.174994 0.02039,-0.06117 0.08228,-0.04616 0.07491,-0.1 -0.006,-0.0538 -0.109821,-0.108721 -0.199999,-0.1 z m -7.924964,0.925 c 0.0534,0.06441 0.09798,0.157871 0,0.199999 -0.0146,0.0079 -0.190097,0.03233 -0.224999,0.02495 -0.01077,-0.0019 -0.01529,-0.0183 -0.0249,-0.02495 0.07645,-0.07432 0.170315,-0.129169 0.249995,-0.199999 z m 0.199998,0.249993 c 0.03484,0.002 0.0593,0.07215 0.1,0.07495 0.03922,0.0037 0.10168,-0.03232 0.124991,-0.02495 0.06116,0.016 0.08321,0.12992 0.02494,0.174993 -0.048,0.006 -0.0651,-0.05723 -0.1,-0.05002 -0.0989,0.0174 -0.125818,0.205808 -0.199999,0.2 -0.0698,-0.008 -0.121296,-0.149107 -0.05003,-0.2 0.002,-0.0437 -0.02802,-0.0564 -0.0249,-0.1 0.0218,-0.02763 0.06674,-0.07929 0.124998,-0.07495 z m -0.324997,0.05002 c 0.02037,0 0.0177,-0.0082 0.0249,0 -0.0102,0.0771 -0.04044,0.08868 -0.1,0.124996 -0.103261,0.0626 -0.166539,0.14123 -0.199998,0.275003 -0.0102,0.03923 -0.125548,0.160168 -0.174995,0.149994 -0.114904,-0.02471 0.04877,-0.241554 0.07493,-0.274993 0.02916,-0.03635 0.06653,-0.05925 0.1,-0.1 0.0334,-0.04073 0.043,-0.126739 0.07493,-0.150004 0.03483,-0.02473 0.138922,-0.02795 0.199999,-0.02495 z m 9.849957,0.2 c 0.114885,-0.008 0.172639,0.130199 0.224992,0.199999 0.0436,0.05673 0.178719,0.13573 0.250005,0.175 0.04072,0.0218 0.0799,0.05472 0.125,0.07495 0.04721,0.02112 0.119181,0.04879 0.174998,0.1 0.0558,0.0513 0.09781,0.128477 0.1,0.175006 0.002,0.0466 -0.03237,0.08134 -0.0249,0.124993 0.05039,0.0081 0.07653,-0.04305 0.1,-0.1 0.188505,0.268905 0.349049,0.555872 0.499997,0.850004 -0.03069,0.01892 -0.04389,0.03753 -0.05003,0.07495 -0.0146,0.08138 0.04716,0.185467 -0.07492,0.2 -0.07709,0.0102 -0.168825,-0.07676 -0.275,-0.1 -0.04362,-0.0102 -0.11509,0.01164 -0.149994,0 -0.08,-0.02762 -0.0567,-0.127012 -0.125004,-0.174994 -0.03923,-0.0277 -0.137457,-0.06785 -0.199999,-0.07495 -0.03923,-0.004 -0.0593,0.006 -0.1,0 -0.0494,-0.006 -0.13428,-2.84e-4 -0.174993,-0.02495 -0.03927,-0.02477 -0.139818,-0.06652 -0.150005,-0.1 -0.016,-0.0538 0.122097,-0.12992 0.124999,-0.175003 0.0037,-0.03483 -0.0427,-0.04764 -0.05004,-0.1 -0.006,-0.032 0.008,-0.07961 0,-0.1 -0.0102,-0.0378 -0.06532,-0.07355 -0.125003,-0.07496 -0.05238,0 -0.104908,0.02495 -0.15,0.02495 -0.064,0.002 -0.195009,-0.03232 -0.275001,-0.02495 -0.048,0.0041 -0.0799,0.02208 -0.124997,0.02495 -0.126538,0.0102 -0.201097,-0.008 -0.299999,0 -0.07122,0.0041 -0.208097,0.04448 -0.275002,0.07495 -0.0334,0.016 -0.05635,0.05325 -0.1,0.07496 -0.0203,0.0102 -0.04877,0.01345 -0.07492,0.02495 -0.04078,0.01883 -0.110729,0.06485 -0.149999,0.07496 -0.05674,0.0146 -0.121733,-0.0041 -0.224997,0 -0.0742,0.0041 -0.198545,-0.01136 -0.199999,-0.1 -0.002,-0.135224 0.247014,-0.07676 0.374995,-0.1 0.048,-0.0102 0.06677,-0.06653 0.125004,-0.1 0.0277,-0.016 0.04878,-0.0326 0.07492,-0.05004 0.04363,-0.0306 0.117722,-0.09012 0.125002,-0.125 0.006,-0.032 -0.0295,-0.07677 -0.02492,-0.1 0.006,-0.0306 0.0607,-0.06073 0.1,-0.1 0.06117,-0.06117 0.09937,-0.135739 0.175004,-0.174997 0.05084,-0.02764 0.151722,-0.03433 0.174993,-0.07495 0.006,-0.0466 -0.002,-0.05786 0,-0.1 0.032,-0.02915 0.0238,-0.0442 0.05004,-0.05002 0.0786,-0.0174 0.158373,0.02945 0.249999,0.02495 0.03925,-0.002 0.08281,0.0033 0.124998,-0.02495 0.03486,-0.02325 0.0651,-0.05755 0.1,-0.07496 0.0378,-0.02038 0.0784,-0.07215 0.125,-0.07495 z m -9.174967,0.07496 c 0.0193,-0.0035 0.0517,0.0027 0.07492,0 0.0334,-0.002 0.06357,0 0.1,0 0.03637,0 0.08547,-0.0146 0.1,0 -0.02327,0.09597 -0.249376,0.05996 -0.325006,0.02495 0.002,-0.01825 0.03077,-0.02191 0.05003,-0.02495 z m -0.274993,0.174996 c 0.02474,0 0.0488,-0.0102 0.07492,0 -0.06683,0.05678 -0.15864,0.08869 -0.275002,0.125001 -0.05523,0.0174 -0.139815,0.03604 -0.149994,-0.02495 -0.0117,-0.07561 0.0505,-0.06785 0.1,-0.07495 0.064,-0.008 0.175827,-0.02355 0.249994,-0.02495 z m 9.474953,0 c -0.048,0.016 -0.07121,0.111929 0,0.125001 0.0334,-0.0203 0.0338,-0.0639 0.02493,-0.125001 -0.01884,-0.0203 -0.01042,-0.006 -0.02493,0 z m -0.0249,0.2 c -0.02325,0.008 -0.05039,-0.0016 -0.07492,0.02495 0.002,0.08138 0.016,0.128757 0,0.199998 0.0466,0.09018 0.151734,0.03605 0.175005,-0.02495 0.0277,-0.151219 -0.03013,-0.218899 -0.1,-0.199999 z m 0.625005,0.399997 c -0.064,-0.0037 -0.112188,0.0198 -0.150007,0.05003 0.0538,0.08721 0.15428,0.103183 0.275005,0.124994 0.04362,-0.032 0.02961,-0.11974 0.05005,-0.175001 -0.05238,0 -0.08599,0.0037 -0.15,0 z m -12.699961,3.075 c 0.0511,0.06507 0.106318,0.141007 0.174999,0.175 0.03636,0.01883 0.0785,0.01485 0.125,0.02495 0.0378,0.008 0.06367,0.0384 0.100001,0.05004 0.07716,0.0262 0.188918,0.0224 0.249996,0.05003 0.09311,0.04075 0.145,0.203462 0.225,0.249993 0.0041,0.0466 -0.0146,0.09013 0,0.125004 0.0378,0.05085 0.113899,0.06654 0.174998,0.1 0.0742,0.04073 0.105196,0.143005 0.175002,0.174995 0.02473,0.0102 0.06211,-0.01162 0.1,0 0.09599,0.02917 0.117095,0.174708 0.2,0.150006 0.0538,-0.016 0.06629,-0.09766 0.07492,-0.150006 0.03637,-0.03927 0.0682,-0.1 0.125007,-0.1 0.09019,-0.002 0.116537,0.11131 0.149991,0.199998 0.01883,0.0494 0.0619,0.09766 0.07493,0.150007 0.0218,0.09018 0.01883,0.346196 0,0.399998 -0.02328,0.06684 -0.119732,0.102287 -0.174997,0.174998 -0.0262,0.03484 -0.05474,0.07676 -0.07492,0.1 -0.03483,0.04362 -0.0738,0.06076 -0.1,0.1 -0.0146,0.0218 -0.01193,0.0695 -0.0249,0.1 -0.0437,0.09307 -0.111387,0.163031 -0.07493,0.274993 0.0146,0.04517 0.07493,0.09622 0.07493,0.150008 0,0.064 -0.139814,0.08024 -0.150001,0.149991 -0.0079,0.05084 0.059,0.156659 0.07493,0.225005 0.01163,0.05083 0.09446,0.09156 0.125003,0.125001 0.05086,0.05669 0.103451,0.127291 0.149993,0.199999 0.09165,0.141031 0.134842,0.311856 0.225003,0.449989 0.048,0.07126 0.142995,0.124399 0.174995,0.199999 0.016,0.0378 -0.0146,0.115119 0,0.150007 0.0523,0.117779 0.307193,0.241831 0.425001,0.299999 0.05525,0.0277 0.0991,0.04585 0.149999,0.07495 0.07717,0.0437 0.235734,0.13166 0.275004,0.199999 0.03484,0.06117 0.0575,0.202584 0.07492,0.299998 0.0218,0.127955 -0.006,0.236854 0,0.374994 0.0041,0.07563 0.02492,0.12439 0.02492,0.199999 0,0.0262 0.002,0.07385 0,0.1 -0.002,0.09018 0.008,0.183404 0,0.275002 -0.0041,0.0494 -0.0037,0.107832 0,0.150001 0.0041,0.04517 0.04716,0.06074 0.05003,0.1 0.0037,0.0422 -0.0544,0.09158 -0.05003,0.124997 0.0102,0.09163 0.107545,0.165665 0.125001,0.249996 0.0146,0.06686 0.0337,0.220024 0.02491,0.299999 -0.006,0.0422 -0.0192,0.103474 -0.02491,0.150001 -0.0041,0.03638 0.006,0.06653 0,0.1 -1.993354,-1.280421 -3.324986,-3.504821 -3.324986,-6.049975 0,-0.326295 0.03294,-0.635201 0.07492,-0.949989 z m 2.749982,0.724988 c 0.0698,-0.032 0.05675,0.09128 0,0.1 -0.0538,0.008 -0.0523,-0.07525 0,-0.1 z"
     class="ColorScheme-Background"
     id="path12" />
</svg>
